<svg aria-hidden="true" style="position:absolute;width:0;height:0;overflow:hidden" xmlns="http://www.w3.org/2000/svg"><defs><symbol id="icon-envelope" viewBox="0 0 43 32"><path d="M38.7 0H4C1.9 0 0 1.9 0 4v24c0 2.1 1.9 4 4 4h34.7c2.1 0 4-1.9 4-4V4c0-2.1-1.9-4-4-4zm0 2.7h.5L21.3 18 3.5 2.7h35.2zm0 26.6H4c-.7 0-1.3-.6-1.3-1.3V5.6l17.8 15.5.8.2.8-.2L40 5.3v22.4c0 .8-.5 1.4-1.3 1.4z"/></symbol><symbol id="icon-smartphone" viewBox="0 0 20 32"><path d="M17 0H3a3 3 0 0 0-3 3v26a3 3 0 0 0 3 3h14a3 3 0 0 0 3-3V3a3 3 0 0 0-3-3zM3 2h14c.6 0 1 .4 1 1v21H2V3c0-.6.4-1 1-1zm14 28H3a1 1 0 0 1-1-1v-3h16v3c0 .6-.4 1-1 1z"/><path fill="#757575" style="fill:var(--color1, #757575)" d="M4.7 27.5c.4.3.4 1 0 1.3s-1 .4-1.4 0c-.4-.4-.4-1 0-1.3s1-.4 1.4 0z"/></symbol><symbol id="icon-antenna" viewBox="0 0 32 32"><path fill="#212121" style="fill:var(--color1, #212121)" d="m30.8 22-8.5-8.4 1-4.6.7.1a2.1 2.1 0 1 0-2-1.4l-5 .6L9 0 8.6 0l-.4.1-1.5 1.5c-.2.3-.2.6 0 .8l.8.8a14.9 14.9 0 0 0 2.7 17.7v6.8H3.6a2.7 2.7 0 0 0-2.6 2.7v1c0 .3.2.6.5.6h24.5c.3 0 .6-.3.6-.6v-1c0-1.5-1.2-2.7-2.7-2.7h-6.4V25a14.6 14.6 0 0 0 10.1-1.5l.8.8.4.2s.3 0 .4-.2l1.5-1.5c.2-.2.2-.5 0-.8zM23.3 6.3c.2-.2.4-.3.7-.3A1 1 0 0 1 24 8a1 1 0 0 1-.7-1.8zm-1.2 3.5-.6 3-1.2-1.2 1.8-1.8zm-.6-.9-2 2-1.4-1.6 3.4-.4zm2.5 20c1 0 1.6.7 1.6 1.6v.5H2.1v-.5c0-1 .7-1.6 1.6-1.6H24zm-7.5-2.1v1h-5.3v-1h5.3zm-5.3-1.1v-4c0-1.3 1.2-2.4 2.7-2.4 1.5 0 2.6 1 2.6 2.3v4.1h-5.3zm6.4-1.7v-2.4c0-1.8-1.7-3.4-3.7-3.4-1.4 0-2.6.6-3.3 1.8a13.8 13.8 0 0 1-2.2-16l18.5 18.8a13.6 13.6 0 0 1-9.4 1.1h.1zm11.3-.7-.7-.8L8.6 2.7l-.8-.6.7-.8 8 8 13.2 13.1-.8.8z"/><path fill="#2196f3" style="fill:var(--color2, #2196f3)" d="M13.9 20.3a1.6 1.6 0 1 0 0 3.2 1.6 1.6 0 1 0 0-3.2zm.4 2a.6.6 0 1 1-.4-1 .5.5 0 0 1 .4 1z"/></symbol><symbol id="icon-astronaut" viewBox="0 0 32 32"><path fill="#2196f3" style="fill:var(--color2, #2196f3)" d="M32 4.5c0-.2-.3-.3-.5-.3l-1.9-.3-.8-1.8c-.2-.3-.8-.3-1 0L27 4l-1.8.3a.5.5 0 0 0-.3.9L26 6.4l-.3 2a.5.5 0 0 0 .8.5l1.7-1L30 9h.2a.5.5 0 0 0 .6-.6l-.4-1.9L31.8 5c.2 0 .2-.3.2-.5zM29.5 6l-.2.4.2 1.2-1-.6h-.4l-1 .6.1-1.2V6l-1-.8 1.2-.2c.2 0 .3-.1.4-.3l.5-1 .5 1 .4.2 1.1.2-.8.8zm-3.4 14.6h-1v1h1v-1zm0 2.2h-1v1h1v-1zm1.1-1.1h-1v1h1v-1zm-2.1 0H24v1h1v-1zm-2.7 4.8h-1v1h1v-1zm0 2.1h-1v1h1v-1zm1-1h-1v1h1v-1zm-2 0h-1.1v1h1v-1zM16 24.1h-1v1.1h1v-1zm0 2.2h-1v1h1v-1zm1-1h-1v1h1v-1zm-2 0h-1.1v1h1v-1zM5.8 6H4.8v1h1v-1zm0 2.1H4.8v1.1h1v-1zM7 7.2H5.8v1h1v-1zm-2.2 0h-1v1h1v-1z"/><path fill="#212121" style="fill:var(--color1, #212121)" d="M24.7 14.2c-.3-.4-.7-.7-1.1-.8-.5 0-1 .1-1.4.4l-1.3 1-1.9 1.4-1.4-.6a7 7 0 0 0-2.8-13.2A7 7 0 0 0 9 13H6l-3.3 1.6-1.9 1a1.8 1.8 0 1 0 1.8 3l1.3-.7 2.3-1.2h1.4l-5.4 5.4-1.4 1.3a1.6 1.6 0 0 0 0 2.3 1.6 1.6 0 0 0 2.4 0l1.4-1.3 1.7-1.2.9.9-1.8 1.7-1.3 1.4a1.6 1.6 0 0 0 0 2.3 1.7 1.7 0 0 0 2.4 0l3.4-3.4 1-1 5.2-5.7 3.5.5a.5.5 0 0 0 .2 0h.1l3.2-2.2h.1l1.3-1.3a1.8 1.8 0 0 0 .2-2.3zM2.2 17.8h-.6a.7.7 0 0 1-.2-1.3l1.3-.6.3 1 .2.4-1 .4zM5.7 16l-1.6.7-.3-.7-.1-.5 2-1V16zm15-6.7c0 1-.1 1.8-.5 2.6l-4.2-2c0-.5-.3-1-.8-1.3l1.5-4.9c2.4.8 4.1 3 4.1 5.6zM9 9.3a5.9 5.9 0 0 1 6.6-5.8L14 8.2c-1 0-1.9.8-1.9 1.9v.2a1.8 1.8 0 0 0 3.5.7l3.9 1.8A5.9 5.9 0 0 1 9 9.3zm6 .8c0 .5-.4.8-.9.8s-.8-.3-.8-.8.4-.8.8-.8.8.4.8.8zm-12.5 15c-.2.3-.6.3-.9 0a.6.6 0 0 1 0-.8l1-1 .9.9-1 1zm3.2 3.7c-.2.3-.6.3-.8 0a.6.6 0 0 1 0-.8l1-.9.4.4.4.4-1 1zm3.5-3.4-1.7 1.8-.5-.4-.4-.5 1.8-1.8v-.3h.1V24l-.1-.2-1.6-1.6h-.1l-.1-.1h-.7l-1.7 1.4-1-1 2.5-2.3 4.4 4.3-1 .9zm6.8-7-.4.1-4.8 5.3-4.4-4.3 2.9-2.8.1-.4c0-.3-.2-.5-.5-.5H6.7v-1.6h3a7 7 0 0 0 6.4 2l2.5 1 .1.8.2.9-3-.5zm4 .2-.3-1.6 1.5-1 .4.4.5.8-2 1.4zm3.8-2.9-.8.8-1-1.2.9-.6c.1-.2.3-.2.5-.2a.7.7 0 0 1 .5 1.2z"/><path fill="#212121" style="fill:var(--color1, #212121)" d="m13.6 18.6-2.2-2.2a.5.5 0 0 0-.7 0l-2.2 2.2a.5.5 0 0 0 0 .7l2.2 2.1.3.2c.1 0 .3 0 .4-.2l2.2-2.1a.5.5 0 0 0 0-.7zm-2.5 1.7-1.4-1.4 1.4-1.3 1.3 1.3-1.3 1.4zM17 5 17 6.1s1.8.5 1.8 2.2h1c0-2-1.7-3-2.6-3.2zm2.6 4.3h-1v1h1v-1z"/></symbol><symbol id="icon-clock" viewBox="0 0 32 32"><path fill="#212121" style="fill:var(--color1, #212121)" d="M31.3 15.3a15.3 15.3 0 1 0-19.9 14.6h.5l.3-.5L16 17.2a2 2 0 1 0-.8-3.6L10 8.5a.6.6 0 1 0-1 .9l5.2 5c-.2.3-.2.6-.2.9 0 .6.3 1.1.7 1.5l-3.6 11.7a14 14 0 1 1 10.6-.4h-.1l-.4-1.9a.6.6 0 0 0-1-.3l-3.9 3.4a.6.6 0 0 0 .2 1.1l5 1.6h.1a.6.6 0 0 0 .7-.7l-.4-1.9c5.5-2.3 9.3-7.7 9.3-14zM16 14.6a.6.6 0 0 1 0 1.3.6.6 0 0 1 0-1.3zm2.1 14.9 2.2-2 .6 2.9-2.8-1z"/><path fill="#2196f3" style="fill:var(--color2, #2196f3)" d="M15.4 3.2v1.3a.6.6 0 0 0 1.2 0V3.2a.6.6 0 0 0-1.2 0zM3.9 14.6a.7.7 0 0 0 0 1.4h1.3a.6.6 0 0 0 0-1.3H3.9zM28 16a.6.6 0 0 0 0-1.3h-1.3a.6.6 0 0 0 0 1.3h1.3z"/></symbol><symbol id="icon-diagram" viewBox="0 0 32 32"><path fill="#2196f3" style="fill:var(--color2, #2196f3)" d="M14.9 15H16v4.7h-1.1V15zm4.3 2.1h1v2.6h-1v-2.6zm-8.5 1.6h1v1h-1v-1zm-3.2-.6h1v1.6h-1v-1.6z"/><path fill="#212121" style="fill:var(--color1, #212121)" d="M1.6 28.3h25.6c.9 0 1.6-.7 1.6-1.6v-2.2c0-.9-.7-1.6-1.6-1.6h-.5V9.7l3-2.9.7.2a1.6 1.6 0 1 0-1.5-1l-2.2 2.2V6.9c0-.8-.8-1.6-1.6-1.6H3.7c-.9 0-1.6.8-1.6 1.6v16h-.5c-1 0-1.6.8-1.6 1.6v2.2c0 1 .7 1.6 1.6 1.6zM30.4 4.8h.2a.5.5 0 1 1-.2 1.1.5.5 0 0 1 0-1zM3.2 7c0-.2.2-.5.5-.5h21.4c.2 0 .5.3.5.5v2.3l-1.1 1V8c0-.3-.2-.5-.5-.5H4.8c-.3 0-.5.2-.5.5v13.4c0 .3.2.5.5.5H24c.3 0 .5-.2.5-.5v-9.7l1.1-1v12.2H3.2V7zM8 14A1.6 1.6 0 1 0 9 16.6l1.8 1 .7-.1 4-4.5 3.8 3h.7l3.4-3.3v8.1H5.3V8.5h18.2v2.7l-3.8 3.6-4-3a.6.6 0 0 0-.7.1l-4 4.6-1.4-.8v-.2c0-.9-.7-1.6-1.6-1.6zm.5 1.6a.5.5 0 0 1-1 0 .5.5 0 0 1 1 0zm3.2 8.5h5.4v.5c0 .4-.3.6-.6.6h-4.2c-.3 0-.6-.2-.6-.6V24zm-10.6.5c0-.2.2-.5.5-.5h9v.5c0 1 .8 1.6 1.7 1.6h4.2c1 0 1.6-.6 1.6-1.6V24h9.1c.3 0 .5.3.5.5v2.2c0 .3-.2.5-.5.5H1.6a.6.6 0 0 1-.6-.5v-2.2z"/></symbol><symbol id="icon-company-5" viewBox="0 0 57 32"><path d="m14.3 23.9.2.5-.1.3-.2.3c-.3.2-.6.3-1 .3h-1.5V22h1.5c.3 0 .6 0 .9.2l.2.3v.8l-.6.3c.3 0 .4.1.6.3zm-1.8-.5h.6l.4-.1.1-.2v-.5a.7.7 0 0 0-.5-.1h-.6v.9zm1 1.2.2-.1V24l-.1-.1a.7.7 0 0 0-.5-.2h-.6v1h.6c.2 0 .4 0 .5-.2zM17.4 25.3l-.9-1.3h-.3v1.3h-.7V22h1.4c.3 0 .6 0 1 .3l.2.6c0 .2 0 .5-.2.7l-.6.4.9 1.3h-.8zm-1.2-1.8h.6c.4 0 .6-.1.6-.5a.5.5 0 0 0-.1-.3.7.7 0 0 0-.5-.2h-.6v1zM21.3 24.6H20l-.3.7H19l1.3-3.3h.8l1.4 3.3h-.8l-.3-.7zm-.2-.5-.5-1.4-.5 1.4h1zM26.3 25.3h-.7L24 23v2.3h-.8V22h.8l1.6 2.2V22h.7v3.3zM30.4 24.5l-.6.6-1 .2h-1.3V22h1.3c.3 0 .7 0 1 .2.2.1.5.3.6.6.2.2.2.5.2.8l-.2.9zm-.8 0 .3-.9c0-.3-.1-.5-.3-.8-.3-.2-.6-.3-1-.2h-.4v2h.5c.3.1.6 0 .9-.2zM21.8 3.6s9.3 3.2 9 7.9v7.8s-9.2-3.2-9-7.8V3.6zM39.2 17.5c1.7-1.1 3.8-1.8 5.9-2V13a12 12 0 0 0-6 4.5z"/><path d="M38.1 18.2c1.5-2.6 4-4.7 7-5.7v-7S31.8 10 32 16.5v11.2l1.5-.5v-1.1c.4-3.1 2-6 4.5-8z"/><path d="M36.9 22.4c0-.8.2-1.5.4-2.3a10.4 10.4 0 0 0-2.8 6.8l2.6-1.2c-.3-1.1-.3-2.2-.2-3.3zM37.4 22.4c-.1 1 0 2 .2 3 3.6-2 7.6-5 7.5-8.8v-.3c-2.6.3-5 1.3-6.9 3-.4 1-.7 2-.8 3.1z"/></symbol><symbol id="icon-company-3" viewBox="0 0 57 32"><path d="m19.4 26.2.2.1-.3.2-.5.1h-.4a1 1 0 0 1-.4-.3l-.2-.3v-.8l.2-.3.4-.2a1.4 1.4 0 0 1 .9 0l.3.2-.1.1H19.1a.8.8 0 0 0-.2-.1 1.1 1.1 0 0 0-.5 0l-.2.2-.2.2v.6a.7.7 0 0 0 .4.4h.5a.7.7 0 0 0 .4-.1zM22.8 25.6l-.1.4-.2.3-.4.2c-.3.1-.6.1-.8 0a1 1 0 0 1-.4-.2.9.9 0 0 1-.2-.3 1 1 0 0 1 0-.8l.2-.3.4-.2h.8l.4.2a1 1 0 0 1 .3.7zm-.3 0v-.3a.7.7 0 0 0-.5-.4 1 1 0 0 0-.6 0l-.3.2-.1.2v.6a.6.6 0 0 0 .4.4h.6l.3-.1.1-.3v-.3zM25 26h.1v-.1l.8-1.2H26.3v1.9H26V25l-.8 1.1v.1H25l-.8-1.3v.1c0 .1 0 0 0 0v1.5h-.3v-2h.3v.1L25 26zM27.9 25.9v.7h-.3v-2h.6l.4.1.2.1.2.2v.3a.5.5 0 0 1-.2.4l-.2.1h-.7zm0-.2h.5l.2-.2h.1V25a.6.6 0 0 0-.5-.1H28v.8zM31.8 26.6h-.3l-.3-.5h-1l-.2.4h-.3l.9-1.8h.3l.9 1.9zm-1.5-.7h.9l-.4-.8v-.2.1l-.1.1-.4.8zM33 24.7l1.3 1.5V26c0-.1 0 0 0 0v-1.4h.3v1.9h-.2L33 25v1.5h-.3v-2h.2zM36.7 25.8v.8h-.2v-.8l-.8-1.1H36l.5.8.1.1v-.1l.6-.8h.4l-.9 1.1zM25 21.5h.3c2-.8 3.6-2 4.8-3.6s1.7-3.4 1.7-5.3l-2.2-1.8c.5 2 .2 4-.6 5.9s-2.2 3.5-4 4.8z"/><path d="M24.2 21.4c2-1.2 3.5-3 4.3-5s1-4 .4-6.1l-3-2.7a11.5 11.5 0 0 1-1.7 13.8zM34.6 14.8c-.5 2-1.8 4-3.6 5.3-.6.4-1.1.8-1.8 1 1.5-.3 3-1 4-1.9s2-2 2.6-3.3l-1.2-1z"/><path d="M34.1 14.5 32.3 13c0 1.8-.6 3.5-1.6 5s-2.6 2.7-4.4 3.5h1.2c1.7-.6 3.2-1.6 4.3-2.8s2-2.6 2.3-4.2zM24.4 6.5l-2.1-1.9c-2 .7-3.5 1.8-4.7 3.3s-1.8 3.1-1.8 4.9c0 2 .8 3.8 2.2 5.4s3.3 2.6 5.5 3c2-2 3-4.5 3.2-7.2s-.6-5.3-2.3-7.5zM39 14.3c0-2.4-1-4.6-3-6.2a11.3 11.3 0 0 0-10.7-2l13 11.3c.5-1 .7-2 .7-3.1z"/></symbol><symbol id="icon-company-4" viewBox="0 0 57 32"><path d="M12.9 11.3c-1.3 0-2.3.9-2.3 2 0 1.2 1 2 2.3 2 1.3 0 2.3-.8 2.3-2 0-1.1-1-2-2.3-2zM30 10.6c0-1.6-.7-3.1-2-4.2s-3-1.8-4.7-1.8c-1.8 0-3.5.7-4.8 1.8s-2 2.6-2 4.2v8.7S30 18 30 10.6zM5.9 22.2c0 1 .5 2.1 1.3 2.9s2 1.2 3.3 1.2c1.3 0 2.4-.4 3.3-1.2s1.4-1.8 1.4-3v-6s-9.3 1-9.3 6zm4.6 1-.6-.1a1 1 0 0 1-.6-1.2c0-.2.2-.4.4-.5.1-.2.4-.3.6-.3h.7l.5.5c.1.2.3.3.3.6l-.1.4a1 1 0 0 1-.3.3l-.4.3h-.5zM20 22.6h-1v1h-.4v-2.3H20v.4h-1v.6h.9v.3zm2.2-.1-.1.6-.4.4a1 1 0 0 1-.5.1l-.5-.1c-.2-.1-.2-.2-.3-.4l-.1-.6v-.7a.9.9 0 0 1 1-.5l.4.1.4.4.1.6zm-.5-.1v-.6c0-.2-.3-.1-.5-.1l-.3.1-.2.6c0 .3 0 .5.2.6l.3.2c.2 0 .3 0 .4-.2l.1-.5v-.1zm2 .6v-.2l-.4-.2-.4-.1c-.2-.2-.4-.4-.4-.6l.1-.3.3-.2.5-.1h.4l.3.3.1.4h-.5v-.3H23l-.1.2.1.2.3.1.6.3.2.5c0 .2 0 .3-.2.4a1 1 0 0 1-.6.2h-.5c-.1-.2-.3-.2-.3-.4l-.1-.3h.4c0 .2.2.3.5.3h.2l.1-.2zm2.5-1.3h-.7v1.9h-.4v-2h-.7v-.3h1.8v.4zm1.7.9h-1v.6H28v.4h-1.5v-2.3H28v.4h-1v.5h.9v.4zm1.2.1h-.3v.9h-.5v-2.3h.8c.3 0 .5 0 .7.2s.2.3.2.5l-.1.4-.3.2.5 1h-.5l-.5-.9zm-.3-.3h.3l.3-.1.1-.3v-.2l-.4-.1h-.3v.7zm2.8.4v.8h-.5v-2.3h1l.4.1.3.3v.4l-.1.5a1 1 0 0 1-.7.2h-.4zm0-.4h.7l.1-.3v-.3l-.4-.1h-.4v.7zm3 .2h-1v.6h1.1v.4h-1.5v-2.3h1.5v.4h-1v.5h.9v.4zm2.1-1h-.6v2h-.5v-2h-.7v-.3h1.8v.4zm1.7 1h-1v.6h1.1v.4H37v-2.3h1.5v.4h-1v.5h.9v.4zm1.3.1h-.4v.9h-.5v-2.3h.9c.2 0 .4 0 .6.2s.2.3.2.5l-.1.4-.3.2.5 1H40l-.4-.9zm-.4-.3h.4l.2-.1.1-.3v-.2l-.3-.1h-.4v.7zm2.7.6v-.2l-.4-.2-.4-.1c-.2-.2-.4-.4-.4-.6l.1-.3.3-.2.5-.1h.4l.3.3.1.4H42v-.3h-.6l-.1.2.1.2.3.1.6.3.2.5c0 .2 0 .3-.2.4a1 1 0 0 1-.6.2h-.5a.7.7 0 0 1-.4-.7h.4c0 .2.2.3.5.3h.2l.1-.2z"/></symbol><symbol id="icon-company-6" viewBox="0 0 57 32"><path d="M28.5 14.6c-.2-.3-.4-.7-.3-1V12c0-.5 0-.8.3-1s.6-.4 1-.4c.6 0 1 0 1.1.3.3.3.4.6.3 1v.3h-.8v-.8l-.2-.2h-.6l-.2.3v2.2l.1.5.2.2h.5l.1-.3v-.8h1v.4c0 .3-.1.7-.4 1-.2.2-.5.3-1 .3s-.9-.1-1.1-.4zM32.1 14.6c-.2-.2-.3-.6-.3-1V12c0-.5.1-.8.3-1s.6-.4 1.1-.4c.6 0 1 .1 1.1.3.3.3.4.6.4 1v1.7c0 .4-.1.8-.4 1s-.5.4-1 .4c-.6 0-1-.1-1.2-.4zm1.6-.4v-2.9l-.2-.1H33l-.2.1v3h.2l.2.1h.3l.2-.1zM35.7 10.6h1l.7 3 .7-3h1V15h-.7v-3l-.7 3H37l-.7-3v3h-.8l.1-4.3zM40.2 10.6h1.4c.9 0 1.3.4 1.3 1.2 0 .8-.4 1.2-1.3 1.2H41v2h-1v-4.4zm1.2 1.9a.7.7 0 0 0 .5-.2l.2-.5v-.3l-.2-.2a1 1 0 0 0-.5-.1h-.3v1.3h.3zM44.2 10.6h1l1 4.3h-.9l-.2-1h-.8l-.2 1h-.9l1-4.3zm.8 2.8-.3-1.8-.3 1.8h.7zM47 10.6h.6l1.2 2.5v-2.5h.8V15H49l-1.2-2.5v2.5H47v-4.3zM51.4 13.3l-1-2.7h.8l.6 1.7.6-1.7h.8l-1 2.7v1.6h-.8v-1.6zM29.9 16.8v.2h-.7v1.8h-.4V17h-.7v-.2h1.8zM32.2 18.8H32l-.3-.5h-1l-.2.4v.1H30l.9-2h.3l1 2zm-1.5-.7h.9l-.4-.8V17H31v.2l-.4.8zM33.8 18.6h.1a1 1 0 0 0 .3 0l.1-.1V18H34v-.2h.6v.8a1.4 1.4 0 0 1-.6.2h-.7l-.4-.3a1 1 0 0 1-.2-.3l-.1-.4v-.4l.3-.3.4-.2a1.6 1.6 0 0 1 .7 0 1.2 1.2 0 0 1 .6.2h-.1v.1h-.2l-.1-.1a1.2 1.2 0 0 0-.8 0c-.1 0-.2 0-.3.2l-.1.2v.7l.1.2.3.2h.4zM36.7 18.6h1v.2h-1.3v-2h.3v1.8zM38.7 18.8h-.3v-2h.3v2zM39.8 16.8l1.4 1.6v-1.6h.3v2H41.2l-1.3-1.5v1.5h-.3v-2h.2zM43.8 16.8v.2h-1.1v.7h.8v.2h-.8v.7h1v.2h-1.4v-2h1.5zM11.3 4.6 25 8v11.8l-13.7-3.4V4.6zm-.9-1V17l15.5 3.8V7.4L10.4 3.6z"/><path d="M18.7 27 3.2 23.2V9.8l15.5 3.8V27z"/><path d="m10.7 4.5 13.5 3.3-5.7 5L4.9 9.4l5.8-5zm-.3-.9L3.2 9.8l15.5 3.8L26 7.4 10.4 3.6zM19.6 26.3l6.3-5.5-6.3-1.5v7z"/></symbol><symbol id="icon-company-2" viewBox="0 0 57 32"><path d="M26.7 3.2H26a12.6 12.6 0 0 0-.7 0c-2 0-3.9.6-5.6 1.4l-.3.1v11.8l.6-.2a20.6 20.6 0 0 1 5.8-1V17h-.6a17.2 17.2 0 0 0-7.3 2V3.8a15.8 15.8 0 0 1 8-2.2h.3a15.8 15.8 0 0 1 2.7.3v1.6a12 12 0 0 0-1.8-.3h-.5zm2.7 1.5h1a16.7 16.7 0 0 0 8.1-2v14.9a15.9 15.9 0 0 1-11 1.8v-15a11.4 11.4 0 0 0 2 .3zm7.6.1-.6.2-1.5.5a18.2 18.2 0 0 1-5.4.5H29V18h.4l1 .1a14.4 14.4 0 0 0 6.4-1.4l.2-.1V4.8zM19 24.1l-.2-.2H18a.8.8 0 0 0-.5.8v2.5l.3.2.3.2h.6a.9.9 0 0 0 .5-.8v-.3h-.5v.4l-.1.1H18.4a.3.3 0 0 1-.2 0V24.5h.1l.2-.1.2.1v.5h.6v-.2a1 1 0 0 0-.2-.7zM22.2 24a1 1 0 0 0-1 0H21l-.2.4V27l.2.3.3.1.3.1h.3a.9.9 0 0 0 .5-.5V24.4l-.2-.3zm-.2 2.7a.4.4 0 0 1-.2.3.4.4 0 0 1-.4 0 .4.4 0 0 1-.2-.3v-2a.4.4 0 0 1 .2-.2.4.4 0 0 1 .4 0 .4.4 0 0 1 .2.3v2zM26.3 27.6v-3.7h-.5l-.6 2-.7-2H24v3.7h.5v-2.3L25 27h.3l.5-1.6v2.3h.5zM29.3 24.2 29 24l-.4-.1H28v3.7h.5V26h.7l.3-.3.1-.4a2.5 2.5 0 0 0 0-1l-.2-.2zm-.3 1v.3l-.1.1h-.5v-1.2h.5l.1.2v.7zM31.8 23.9h-.4l-.8 3.7h.5l.1-.8h.7l.2.8h.5l-.8-3.7zm-.5 2.4.3-1.3.2 1.3h-.5zM35.2 26.1l-.8-2.2h-.5v3.7h.5v-2.2l.8 2.2h.5v-3.7h-.5v2.2zM38.4 23.9l-.4 1.5-.5-1.5H37l.7 2.1v1.6h.5V26L39 24h-.5zM17.6 28.6h.3v.7h.1v-.7h.3v-.1h-.7v.1zM19.7 28.5l-.3.8h.2v-.2h.4v.2h.2l-.3-.8h-.2zm0 .5.1-.3.1.3h-.2zM21.8 29h.2v.1h-.4v-.2c0-.2 0-.3.2-.3h.1l.1.1h.2c0-.2-.2-.3-.4-.3-.1 0-.2 0-.3.2a.4.4 0 0 0-.1.3l.1.3a.4.4 0 0 0 .3.1l.4-.1v-.3h-.4v.1zM24 28.5h-.2v.8h.6v-.1H24v-.7zM25.8 28.5h-.2v.8h.2v-.8zM27.5 29l-.3-.5H27v.8h.2v-.5l.3.5h.2v-.8h-.2v.5zM29.1 29h.5v-.2H29v-.2h.5v-.1H29v.8h.6v-.1h-.5v-.3zM33 28.8h-.3v-.3h-.2v.8h.2V29h.3v.4h.2v-.8H33v.3zM34.6 29h.5v-.2h-.5v-.2h.5v-.1h-.6v.8h.6v-.1h-.5v-.3zM36.8 29c.2 0 .2-.2.2-.3a.2.2 0 0 0 0-.2h-.7v.8h.2V29h.2l.2.3h.2l-.1-.2-.2-.2zm-.2-.2v-.2h.2v.2h-.2zM38.5 29h.4v-.2h-.4v-.2h.4v-.1h-.6v.8h.6v-.1h-.4v-.3z"/></symbol><symbol id="icon-company-1" viewBox="0 0 57 32"><path d="M20.3 3.7 24 7.3h-7v17.1h18.2V18l3.7 3.5V3.7H20.3zM35 17.5l-10.6-10H35v10zm-3.3 4.4H20V10.4h.9V21h11v.8zm-9 4.8-.4 1-.4-1h-.4L22 28v.7h.4V28l.6-1.2h-.4zm.6 2 .1-.5h.8l.1.4h.4l-.8-1.9h-.3l-.7 2h.4zm.5-1.6.3.8h-.6l.3-.8zm1.7.8v.2l.1.4.5.1.5-.1v.1h.4l-.2-.3.1-.6h-.3v.4l-.4-.5h.1l.2-.3v-.5l-.4-.1-.3.1-.2.4v.2l.2.2-.3.3zm.9.4h-.5l-.1-.2.1-.3.5.5zm-.4-.9V27H26.3V27.3h-.1l-.2.1zm3.1 1c.2 0 .2-.2.3-.4H29l-.1.3h-.6l-.1-.6v-.1l.1-.5.3-.1h.3l.1.3h.4c0-.2-.1-.3-.3-.4l-.5-.2-.4.1-.3.3v1.1l.3.3.4.1.5-.1zm2-.2v-1.1c0-.2-.2-.2-.3-.3l-.4-.1a1 1 0 0 0-.4.1c-.2 0-.2.2-.3.3l-.1.5v.6c0 .1.2.3.4.3l.4.1h.4l.3-.4zm-.4-1 .1.4v.6l-.4.2c-.2 0-.3 0-.4-.2v-1.1l.4-.1.3.1z"/><symbol id="icon-instagram" viewBox="0 0 32 32"><path d="M31.97 9.4c-.03-1.4-.3-2.73-.76-3.96l.02.08a7.86 7.86 0 0 0-1.85-2.83A7.95 7.95 0 0 0 26.54.85 11.48 11.48 0 0 0 22.67.1h-.01a104.86 104.86 0 0 0-6.69-.1h.1c-4.36 0-4.9.02-6.6.1C7.76.16 6.6.45 5.58.83A8 8 0 0 0 2.75 2.7 8 8 0 0 0 .9 5.52 11.47 11.47 0 0 0 .16 9.4a104.86 104.86 0 0 0-.1 6.69V16c0 4.35 0 4.9.08 6.6.03 1.4.3 2.73.78 3.96l-.02-.08a7.78 7.78 0 0 0 1.85 2.83 8 8 0 0 0 2.83 1.86c1.01.38 2.18.65 3.88.73 1.7.08 2.24.1 6.59.1s4.9-.02 6.6-.1c1.4-.02 2.73-.29 3.96-.76l-.08.03a8.24 8.24 0 0 0 4.67-4.64l.02-.05c.38-1.02.67-2.18.73-3.89.08-1.7.1-2.24.1-6.59 0-4.34 0-4.88-.08-6.6zm-2.88 13.08a8.54 8.54 0 0 1-.55 2.96 5.34 5.34 0 0 1-3 3.03l-.04.01c-.56.22-1.42.48-2.97.54-1.68.08-2.2.1-6.47.1a106.97 106.97 0 0 1-6.7-.1h.24a8.45 8.45 0 0 1-2.96-.54 4.96 4.96 0 0 1-1.84-1.2c-.52-.5-.93-1.1-1.19-1.79l-.01-.03a8.64 8.64 0 0 1-.54-2.98 108.65 108.65 0 0 1-.1-6.55v.09c0-4.28.02-4.79.1-6.47.06-1.57.32-2.4.54-2.97.26-.7.66-1.32 1.2-1.83.5-.52 1.12-.93 1.8-1.19h.04c.56-.23 1.4-.49 2.98-.55 1.68-.08 2.19-.1 6.44-.1 4.3 0 4.8 0 6.47.1 1.57.06 2.4.32 2.97.54.7.26 1.33.66 1.84 1.2.53.51.95 1.14 1.2 1.83.21.57.48 1.42.55 2.97.08 1.68.1 2.2.1 6.47s-.02 4.76-.1 6.46z"/><path d="M16.06 7.78a8.22 8.22 0 1 0 0 16.44 8.22 8.22 0 1 0 0-16.44zm0 13.55a5.33 5.33 0 1 1 0-10.66 5.33 5.33 0 1 1 0 10.66zM26.53 7.46a1.92 1.92 0 0 1-3.84 0 1.92 1.92 0 0 1 3.84 0z"/></symbol><symbol id="icon-close-black" viewBox="0 0 32 32"><path d="M26.67 7.29 24.7 5.33l-7.82 7.83-7.82-7.83L7.1 7.3l7.82 7.82-7.82 7.82 1.96 1.96 7.82-7.82 7.82 7.82 1.96-1.96-7.83-7.82 7.83-7.82z"/></symbol><symbol id="icon-close" viewBox="0 0 32 32"><path d="m23.74 10.3-1.5-1.5-5.98 5.96L10.3 8.8l-1.5 1.5 5.96 5.96-5.96 5.98 1.5 1.5 5.96-5.96 5.97 5.96 1.5-1.5-5.96-5.97 5.97-5.96z"/></symbol><symbol id="icon-menu" viewBox="0 0 32 32"><path d="M6.4 11.74V9.6h19.2v2.14H6.4zm0 5.32h19.2v-2.12H6.4v2.12zm0 5.34h19.2v-2.14H6.4v2.14z"/></symbol><symbol id="icon-call" viewBox="0 0 32 32"><path d="m24.89 19.77-3.27-.36c-.78-.1-1.57.18-2.12.71l-2.36 2.39a19.5 19.5 0 0 1-8.43-8.38l-.05-.1 2.38-2.39c.55-.55.82-1.33.73-2.11l-.36-3.24a2.58 2.58 0 0 0-2.56-2.27H6.61a2.56 2.56 0 0 0-2.58 2.66c.72 11 9.46 19.73 20.38 20.44h.07a2.56 2.56 0 0 0 2.67-2.57v-2.22c0-1.32-.96-2.4-2.26-2.56z"/></symbol><symbol id="icon-email" viewBox="0 0 32 32"><path d="M26.67 5.33H5.33A2.66 2.66 0 0 0 2.67 8v16c0 1.46 1.19 2.67 2.66 2.67h21.34c1.45 0 2.66-1.21 2.66-2.67V8c0-1.48-1.2-2.67-2.66-2.67zM26.13 11l-9.42 5.89a1.34 1.34 0 0 1-1.43 0l-9.41-5.87a1.14 1.14 0 1 1 1.2-1.92L16 14.66l8.94-5.58a1.14 1.14 0 1 1 1.2 1.92z"/></symbol><symbol id="icon-person" viewBox="0 0 32 32"><path d="M16 16a5.33 5.33 0 1 0 0-10.67A5.33 5.33 0 1 0 16 16zm0 2.67c-3.56 0-10.67 1.77-10.67 5.33v1.33c0 .73.6 1.34 1.34 1.34h18.66c.73 0 1.34-.6 1.34-1.34V24c0-3.56-7.12-5.33-10.67-5.33z"/></symbol><symbol id="icon-facebook" viewBox="0 0 32 32"><path d="M21.28 5.28h3.04V.16L20 0c-4.16 0-7.04 2.72-7.04 7.52V12H8v5.76h4.8V32h5.6V17.6h4.48l.8-5.6H18.4V8.16c0-1.6.48-2.88 2.72-2.88z"/></symbol><symbol id="icon-check" viewBox="0 0 32 32"><path fill="#fff" style="fill:var(--color2, #fff);stroke:var(--color2, #fff)" stroke="#fff" stroke-width=".4" d="m8 16.6-.2-.2-2 1.8v.2l7 6.8h.2l15.2-14.4v-.2l-2-1.8L13 21.4l-5-4.8z"/></symbol><symbol id="icon-send" viewBox="0 0 32 32"><path d="M32 0 0 18l10.27 3.73L26 7.07l-12 16V32l5.73-6.67L27.07 28 32 0z"/></symbol><symbol id="icon-linkedin" viewBox="0 0 32 32"><path d="M32 32V20.32c0-5.76-1.28-10.24-8-10.24a6.92 6.92 0 0 0-6.24 3.52v-3.04H11.2V32h6.56V21.44c0-2.88.48-5.44 4-5.44 3.36 0 3.52 3.2 3.52 5.6V32H32zM.48 10.56H7.2V32H.48V10.56zM3.84 0A3.79 3.79 0 0 0 0 3.84c0 2.08 1.6 3.84 3.84 3.84a3.84 3.84 0 1 0 0-7.68z"/></symbol><symbol id="icon-twitter" viewBox="0 0 32 32"><path d="M32 6.08c-1.12.48-2.4.8-3.84.96a6.44 6.44 0 0 0 2.87-3.48l.01-.04c-1.28.8-2.56 1.28-4.16 1.6a6.55 6.55 0 0 0-11.36 4.47c0 .51.06 1.01.17 1.5l-.01-.05A18.49 18.49 0 0 1 2.24 4.16a6.55 6.55 0 0 0 2.06 8.79l.02.01a6.38 6.38 0 0 1-3.07-.82l.03.02a6.4 6.4 0 0 0 5.28 6.4 6.25 6.25 0 0 1-3.08.15l.04.01c.96 2.72 3.2 4.64 6.24 4.64a13.04 13.04 0 0 1-9.83 2.71l.07.01C2.88 28 6.4 28.8 10.08 28.8h.01A18.56 18.56 0 0 0 28.64 9.57v.03A13.4 13.4 0 0 0 32 6.24z"/></symbol></symbol></defs></svg>